# This file uses centimeters as units for non-parametric coordinates.

mtllib cola.mtl
g default
v 0.951057 0.169655 -0.309017
v 0.809018 0.169655 -0.587786
v 0.587786 0.169655 -0.809017
v 0.309017 0.169655 -0.951057
v 0.000000 0.169655 -1.000000
v -0.309017 0.169655 -0.951057
v -0.587785 0.169655 -0.809017
v -0.809017 0.169655 -0.587785
v -0.951057 0.169655 -0.309017
v -1.000000 0.169655 0.000000
v -0.951057 0.169655 0.309017
v -0.809017 0.169655 0.587785
v -0.587785 0.169655 0.809017
v -0.309017 0.169655 0.951057
v -0.000000 0.169655 1.000000
v 0.309017 0.169655 0.951057
v 0.587785 0.169655 0.809017
v 0.809017 0.169655 0.587785
v 0.951057 0.169655 0.309017
v 1.000000 0.169655 0.000000
v 0.951057 4.074930 -0.309017
v 0.809018 4.074930 -0.587786
v 0.587786 4.074930 -0.809017
v 0.309017 4.074930 -0.951057
v 0.000000 4.074930 -1.000000
v -0.309017 4.074930 -0.951057
v -0.587785 4.074930 -0.809017
v -0.809017 4.074930 -0.587785
v -0.951057 4.074930 -0.309017
v -1.000000 4.074930 0.000000
v -0.951057 4.074930 0.309017
v -0.809017 4.074930 0.587785
v -0.587785 4.074930 0.809017
v -0.309017 4.074930 0.951057
v -0.000000 4.074930 1.000000
v 0.309017 4.074930 0.951057
v 0.587785 4.074930 0.809017
v 0.809017 4.074930 0.587785
v 0.951057 4.074930 0.309017
v 1.000000 4.074930 0.000000
v 0.874985 0.250638 -0.284300
v 0.811154 0.175285 -0.263560
v 0.690009 0.175285 -0.501321
v 0.744307 0.250638 -0.540771
v 0.920014 0.250638 -0.000000
v 0.852897 0.175285 -0.000000
v 0.501321 0.175285 -0.690009
v 0.540771 0.250638 -0.744307
v 0.263560 0.175285 -0.811154
v 0.284300 0.250638 -0.874985
v 0.000000 0.175285 -0.852897
v 0.000000 0.250638 -0.920014
v -0.263560 0.175285 -0.811154
v -0.284300 0.250638 -0.874985
v -0.501320 0.175285 -0.690008
v -0.540771 0.250638 -0.744307
v -0.690008 0.175285 -0.501320
v -0.744307 0.250638 -0.540771
v -0.811153 0.175285 -0.263560
v -0.874985 0.250638 -0.284300
v -0.852897 0.175285 0.000000
v -0.920014 0.250638 0.000000
v -0.811153 0.175285 0.263560
v -0.874985 0.250638 0.284300
v -0.690008 0.175285 0.501320
v -0.744307 0.250638 0.540770
v -0.501320 0.175285 0.690008
v -0.540771 0.250638 0.744307
v -0.263560 0.175285 0.811153
v -0.284300 0.250638 0.874985
v -0.000000 0.175285 0.852897
v -0.000000 0.250638 0.920014
v 0.263560 0.175285 0.811153
v 0.284300 0.250638 0.874985
v 0.501320 0.175285 0.690008
v 0.540770 0.250638 0.744307
v 0.690008 0.175285 0.501320
v 0.744307 0.250638 0.540770
v 0.811153 0.175285 0.263560
v 0.874985 0.250638 0.284300
v 0.000000 0.185424 0.000000
v 0.874985 3.993946 -0.284300
v 0.811154 4.069300 -0.263560
v 0.852897 4.069300 -0.000000
v 0.920013 3.993946 -0.000000
v 0.744307 3.993946 -0.540771
v 0.690009 4.069300 -0.501321
v 0.540771 3.993946 -0.744307
v 0.501321 4.069300 -0.690009
v 0.284300 3.993946 -0.874985
v 0.263560 4.069300 -0.811154
v 0.000000 3.993945 -0.920014
v 0.000000 4.069300 -0.852897
v -0.284300 3.993945 -0.874985
v -0.263560 4.069300 -0.811154
v -0.540771 3.993946 -0.744307
v -0.501320 4.069300 -0.690008
v -0.744307 3.993946 -0.540770
v -0.690008 4.069300 -0.501320
v -0.874985 3.993946 -0.284300
v -0.811153 4.069300 -0.263560
v -0.920014 3.993946 -0.000000
v -0.852897 4.069300 -0.000000
v -0.874985 3.993946 0.284300
v -0.811153 4.069300 0.263560
v -0.744307 3.993946 0.540770
v -0.690008 4.069300 0.501320
v -0.540771 3.993946 0.744306
v -0.501320 4.069300 0.690008
v -0.284300 3.993946 0.874985
v -0.263560 4.069300 0.811153
v -0.000000 3.993945 0.920014
v -0.000000 4.069300 0.852897
v 0.284300 3.993946 0.874985
v 0.263560 4.069300 0.811153
v 0.540770 3.993946 0.744306
v 0.501320 4.069300 0.690008
v 0.744307 3.993946 0.540770
v 0.690008 4.069300 0.501320
v 0.874985 3.993946 0.284300
v 0.811153 4.069300 0.263560
v 0.000000 4.059160 -0.000000
v -0.305595 3.914544 0.356782
v -0.159789 3.914511 0.427947
v -0.000000 3.914825 0.479687
v 0.166856 3.914783 0.449698
v 0.314237 3.914719 0.368677
v -0.079895 4.062234 0.245890
v -0.305595 3.910986 0.356782
v -0.159789 3.910953 0.427947
v -0.079895 4.058676 0.245890
v 0.000000 4.055602 -0.000000
vt 0.375000 0.321527
vt 0.375625 0.312500
vt 0.386875 0.312500
vt 0.624375 0.312500
vt 0.613125 0.312500
vt 0.388125 0.312500
vt 0.399375 0.312500
vt 0.400625 0.312500
vt 0.411875 0.312500
vt 0.413125 0.312500
vt 0.424375 0.312500
vt 0.425625 0.312500
vt 0.436875 0.312500
vt 0.438125 0.312500
vt 0.449375 0.312500
vt 0.450625 0.312500
vt 0.461875 0.312500
vt 0.463125 0.312500
vt 0.474375 0.312500
vt 0.475625 0.312500
vt 0.486875 0.312500
vt 0.488125 0.312500
vt 0.499375 0.312500
vt 0.500625 0.312500
vt 0.511875 0.312500
vt 0.513125 0.312500
vt 0.524375 0.312500
vt 0.525625 0.312500
vt 0.536875 0.312500
vt 0.538125 0.312500
vt 0.549375 0.312500
vt 0.550625 0.312500
vt 0.561875 0.312500
vt 0.563125 0.312500
vt 0.574375 0.312500
vt 0.575625 0.312500
vt 0.586875 0.312500
vt 0.588125 0.312500
vt 0.599375 0.312500
vt 0.600625 0.312500
vt 0.611875 0.312500
vt 0.625000 0.678473
vt 0.624375 0.687500
vt 0.613125 0.687500
vt 0.375625 0.687500
vt 0.386875 0.687500
vt 0.388125 0.687500
vt 0.399375 0.687500
vt 0.400625 0.687500
vt 0.411875 0.687500
vt 0.413125 0.687500
vt 0.424375 0.687500
vt 0.425625 0.687500
vt 0.436875 0.687500
vt 0.438125 0.687500
vt 0.449375 0.687500
vt 0.450625 0.687500
vt 0.461875 0.687500
vt 0.463125 0.687500
vt 0.474375 0.687500
vt 0.475625 0.687500
vt 0.486875 0.687500
vt 0.488125 0.687500
vt 0.499375 0.687500
vt 0.500625 0.687500
vt 0.511875 0.687500
vt 0.513125 0.687500
vt 0.524375 0.687500
vt 0.525625 0.687500
vt 0.536875 0.687500
vt 0.538125 0.687500
vt 0.549375 0.687500
vt 0.550625 0.687500
vt 0.561875 0.687500
vt 0.563125 0.687500
vt 0.574375 0.687500
vt 0.575625 0.687500
vt 0.586875 0.687500
vt 0.588125 0.687500
vt 0.599375 0.687500
vt 0.600625 0.687500
vt 0.611875 0.687500
vt 0.387500 0.321527
vt 0.375000 0.678473
vt 0.400000 0.321527
vt 0.387500 0.678473
vt 0.412500 0.321527
vt 0.400000 0.678473
vt 0.425000 0.321527
vt 0.412500 0.678473
vt 0.437500 0.321527
vt 0.425000 0.678473
vt 0.450000 0.321527
vt 0.437500 0.678473
vt 0.462500 0.321527
vt 0.450000 0.678473
vt 0.475000 0.321527
vt 0.462500 0.678473
vt 0.487500 0.321527
vt 0.475000 0.678473
vt 0.500000 0.321527
vt 0.487500 0.678473
vt 0.512500 0.321527
vt 0.500000 0.678473
vt 0.525000 0.321527
vt 0.512500 0.678473
vt 0.537500 0.321527
vt 0.525000 0.678473
vt 0.550000 0.321527
vt 0.537500 0.678473
vt 0.562500 0.321527
vt 0.550000 0.678473
vt 0.575000 0.321527
vt 0.562500 0.678473
vt 0.587500 0.321527
vt 0.575000 0.678473
vt 0.600000 0.321527
vt 0.587500 0.678473
vt 0.612500 0.321527
vt 0.600000 0.678473
vt 0.625000 0.321527
vt 0.612500 0.678473
vt 0.633744 0.112794
vt 0.613769 0.073592
vt 0.582658 0.042481
vt 0.543456 0.022506
vt 0.500000 0.015623
vt 0.456544 0.022506
vt 0.417342 0.042481
vt 0.386231 0.073592
vt 0.366256 0.112794
vt 0.359373 0.156250
vt 0.366256 0.199706
vt 0.386231 0.238908
vt 0.417342 0.270019
vt 0.456544 0.289994
vt 0.500000 0.296877
vt 0.543456 0.289994
vt 0.582658 0.270019
vt 0.613769 0.238908
vt 0.633744 0.199706
vt 0.500000 0.156250
vt 0.640627 0.156250
vt 0.613769 0.926408
vt 0.582658 0.957519
vt 0.543456 0.977494
vt 0.500000 0.984377
vt 0.456544 0.977494
vt 0.417342 0.957519
vt 0.386231 0.926408
vt 0.366256 0.887206
vt 0.359373 0.843750
vt 0.366256 0.800294
vt 0.386231 0.761092
vt 0.417342 0.729981
vt 0.456544 0.710006
vt 0.500000 0.703123
vt 0.543456 0.710006
vt 0.582658 0.729981
vt 0.613769 0.761092
vt 0.633744 0.800294
vt 0.640627 0.843750
vt 0.633744 0.887206
vt 0.500000 0.843750
vt 0.387500 0.321527
vt 0.375000 0.321527
vt 0.625000 0.321527
vt 0.612500 0.321527
vt 0.400000 0.321527
vt 0.412500 0.321527
vt 0.425000 0.321527
vt 0.437500 0.321527
vt 0.450000 0.321527
vt 0.462500 0.321527
vt 0.475000 0.321527
vt 0.487500 0.321527
vt 0.500000 0.321527
vt 0.512500 0.321527
vt 0.525000 0.321527
vt 0.537500 0.321527
vt 0.550000 0.321527
vt 0.562500 0.321527
vt 0.575000 0.321527
vt 0.587500 0.321527
vt 0.600000 0.321527
vt 0.612500 0.678473
vt 0.625000 0.678473
vt 0.375000 0.678473
vt 0.387500 0.678473
vt 0.400000 0.678473
vt 0.412500 0.678473
vt 0.425000 0.678473
vt 0.437500 0.678473
vt 0.450000 0.678473
vt 0.462500 0.678473
vt 0.475000 0.678473
vt 0.487500 0.678473
vt 0.500000 0.678473
vt 0.512500 0.678473
vt 0.525000 0.678473
vt 0.537500 0.678473
vt 0.550000 0.678473
vt 0.562500 0.678473
vt 0.575000 0.678473
vt 0.587500 0.678473
vt 0.600000 0.678473
vt 0.449613 0.774399
vt 0.473654 0.762665
vt 0.500000 0.754134
vt 0.527511 0.759078
vt 0.551812 0.772437
vt 0.486827 0.803207
vt 0.449613 0.774399
vt 0.473654 0.762665
vt 0.486827 0.803207
vt 0.500000 0.843750
vn 0.710193 -0.665115 -0.230755
vn 0.710193 -0.665115 -0.230755
vn 0.604126 -0.665115 -0.438923
vn 0.604126 -0.665115 -0.438923
vn 0.746741 -0.665115 0.000001
vn 0.746741 -0.665115 0.000001
vn 0.438923 -0.665115 -0.604126
vn 0.438923 -0.665115 -0.604126
vn 0.230756 -0.665116 -0.710192
vn 0.230756 -0.665116 -0.710192
vn -0.000000 -0.665116 -0.746740
vn -0.000000 -0.665116 -0.746740
vn -0.230756 -0.665115 -0.710193
vn -0.230756 -0.665115 -0.710193
vn -0.438923 -0.665115 -0.604126
vn -0.438923 -0.665115 -0.604126
vn -0.604126 -0.665115 -0.438923
vn -0.604126 -0.665115 -0.438923
vn -0.710193 -0.665115 -0.230755
vn -0.710193 -0.665115 -0.230756
vn -0.746741 -0.665115 0.000000
vn -0.746741 -0.665115 0.000000
vn -0.710193 -0.665115 0.230756
vn -0.710193 -0.665115 0.230756
vn -0.604126 -0.665115 0.438923
vn -0.604126 -0.665115 0.438923
vn -0.438923 -0.665115 0.604126
vn -0.438923 -0.665115 0.604126
vn -0.230756 -0.665115 0.710193
vn -0.230755 -0.665115 0.710193
vn 0.000000 -0.665115 0.746741
vn 0.000000 -0.665115 0.746741
vn 0.230756 -0.665115 0.710193
vn 0.230756 -0.665115 0.710193
vn 0.438923 -0.665115 0.604126
vn 0.438923 -0.665115 0.604126
vn 0.604126 -0.665115 0.438923
vn 0.604126 -0.665115 0.438923
vn 0.710193 -0.665115 0.230756
vn 0.710193 -0.665115 0.230756
vn 0.710193 0.665115 -0.230755
vn 0.710193 0.665115 -0.230755
vn 0.746741 0.665114 0.000001
vn 0.746741 0.665114 0.000001
vn 0.604127 0.665114 -0.438924
vn 0.604127 0.665114 -0.438924
vn 0.438923 0.665115 -0.604126
vn 0.438923 0.665115 -0.604126
vn 0.230756 0.665115 -0.710193
vn 0.230756 0.665115 -0.710193
vn -0.000001 0.665112 -0.746744
vn -0.000001 0.665112 -0.746744
vn -0.230756 0.665111 -0.710196
vn -0.230756 0.665111 -0.710196
vn -0.438924 0.665113 -0.604128
vn -0.438924 0.665113 -0.604128
vn -0.604127 0.665115 -0.438924
vn -0.604126 0.665114 -0.438924
vn -0.710193 0.665115 -0.230756
vn -0.710193 0.665115 -0.230756
vn -0.746741 0.665115 -0.000000
vn -0.746741 0.665115 0.000000
vn -0.710193 0.665115 0.230756
vn -0.710193 0.665115 0.230756
vn -0.604126 0.665115 0.438923
vn -0.604126 0.665115 0.438923
vn -0.438924 0.665114 0.604127
vn -0.438924 0.665114 0.604127
vn -0.230755 0.665113 0.710195
vn -0.230755 0.665113 0.710195
vn 0.000000 0.665113 0.746743
vn 0.000000 0.665113 0.746743
vn 0.230756 0.665114 0.710194
vn 0.230756 0.665114 0.710194
vn 0.438924 0.665115 0.604126
vn 0.438924 0.665115 0.604126
vn 0.604127 0.665114 0.438924
vn 0.604126 0.665114 0.438924
vn 0.710194 0.665114 0.230756
vn 0.710194 0.665114 0.230756
vn 0.951057 0.000000 -0.309016
vn 0.809017 0.000000 -0.587785
vn 0.809017 0.000000 -0.587785
vn 0.951057 0.000000 -0.309016
vn 0.587785 0.000000 -0.809017
vn 0.587785 0.000000 -0.809017
vn 0.309017 0.000000 -0.951057
vn 0.309017 0.000000 -0.951057
vn -0.000000 0.000000 -1.000000
vn -0.000000 0.000000 -1.000000
vn -0.309017 0.000000 -0.951056
vn -0.309017 0.000000 -0.951056
vn -0.587785 0.000000 -0.809017
vn -0.587785 0.000000 -0.809017
vn -0.809017 0.000000 -0.587785
vn -0.809017 0.000000 -0.587785
vn -0.951057 0.000000 -0.309017
vn -0.951057 0.000000 -0.309017
vn -1.000000 0.000000 0.000000
vn -1.000000 0.000000 0.000000
vn -0.951057 0.000000 0.309017
vn -0.951057 0.000000 0.309017
vn -0.809017 0.000000 0.587785
vn -0.809017 0.000000 0.587785
vn -0.587785 0.000000 0.809017
vn -0.587785 0.000000 0.809017
vn -0.309017 0.000000 0.951057
vn -0.309017 0.000000 0.951057
vn 0.000000 0.000000 1.000000
vn 0.000000 0.000000 1.000000
vn 0.309017 0.000000 0.951056
vn 0.309017 0.000000 0.951056
vn 0.587785 0.000000 0.809017
vn 0.587785 0.000000 0.809017
vn 0.809017 0.000000 0.587785
vn 0.809017 0.000000 0.587785
vn 0.951057 0.000000 0.309017
vn 0.951057 0.000000 0.309017
vn 1.000000 0.000000 0.000001
vn 1.000000 0.000000 0.000001
vn -0.009617 -0.999929 0.006987
vn -0.011305 -0.999929 0.003674
vn 0.000000 -1.000000 0.000000
vn -0.006987 -0.999929 0.009617
vn -0.003673 -0.999929 0.011305
vn 0.000000 -0.999929 0.011887
vn 0.003673 -0.999929 0.011306
vn 0.006987 -0.999929 0.009617
vn 0.009617 -0.999929 0.006988
vn 0.011305 -0.999929 0.003674
vn 0.011887 -0.999929 0.000000
vn 0.011305 -0.999929 -0.003674
vn 0.009617 -0.999929 -0.006987
vn 0.006987 -0.999929 -0.009617
vn 0.003673 -0.999929 -0.011306
vn -0.000000 -0.999929 -0.011887
vn -0.003673 -0.999929 -0.011305
vn -0.006987 -0.999929 -0.009617
vn -0.009617 -0.999929 -0.006987
vn -0.011305 -0.999929 -0.003674
vn -0.011887 -0.999929 0.000000
vn -0.011306 0.999929 0.003673
vn -0.009617 0.999929 0.006988
vn 0.000043 0.999135 0.041575
vn -0.006987 0.999929 0.009617
vn -0.003673 0.999929 0.011305
vn -0.000000 0.999929 0.011887
vn 0.003673 0.999929 0.011306
vn 0.006987 0.999929 0.009617
vn 0.009617 0.999929 0.006988
vn 0.011306 0.999929 0.003674
vn 0.011888 0.999929 0.000000
vn 0.011306 0.999929 -0.003674
vn 0.246351 0.954912 0.165691
vn 0.341982 0.939601 0.014114
vn 0.385626 0.914847 0.119783
vn -0.350760 0.936376 0.012932
vn -0.246351 0.954913 0.165691
vn -0.393582 0.910742 0.125064
vn -0.011306 0.999929 -0.003673
vn -0.011888 0.999929 0.000000
vn -0.575593 -0.702714 0.418193
vn -0.676651 -0.702714 0.219857
vn -0.676651 -0.702714 0.219857
vn -0.575593 -0.702714 0.418193
vn -0.711473 -0.702714 -0.000001
vn -0.711473 -0.702714 -0.000001
vn -0.418193 -0.702714 0.575593
vn -0.418193 -0.702714 0.575593
vn -0.219857 -0.702715 0.676650
vn -0.219857 -0.702715 0.676650
vn 0.000000 -0.702714 0.711472
vn 0.000000 -0.702714 0.711472
vn 0.219857 -0.702714 0.676651
vn 0.219857 -0.702714 0.676651
vn 0.418193 -0.702714 0.575593
vn 0.418193 -0.702714 0.575593
vn 0.575593 -0.702714 0.418193
vn 0.575593 -0.702714 0.418193
vn 0.676650 -0.702714 0.219857
vn 0.676651 -0.702714 0.219857
vn 0.711473 -0.702714 0.000000
vn 0.711473 -0.702714 0.000000
vn 0.676651 -0.702714 -0.219857
vn 0.676651 -0.702714 -0.219857
vn 0.575593 -0.702714 -0.418193
vn 0.575593 -0.702714 -0.418193
vn 0.418193 -0.702714 -0.575593
vn 0.418193 -0.702714 -0.575593
vn 0.219857 -0.702714 -0.676650
vn 0.219857 -0.702714 -0.676650
vn -0.000000 -0.702714 -0.711472
vn -0.000000 -0.702714 -0.711472
vn -0.219857 -0.702714 -0.676651
vn -0.219857 -0.702714 -0.676651
vn -0.418193 -0.702714 -0.575593
vn -0.418193 -0.702714 -0.575593
vn -0.575594 -0.702714 -0.418193
vn -0.575594 -0.702714 -0.418193
vn -0.676651 -0.702714 -0.219857
vn -0.676651 -0.702714 -0.219857
vn -0.711472 0.702714 -0.000001
vn -0.676651 0.702714 0.219856
vn -0.676651 0.702714 0.219856
vn -0.711472 0.702714 -0.000001
vn -0.575593 0.702714 0.418193
vn -0.575593 0.702714 0.418193
vn -0.418193 0.702714 0.575594
vn -0.418193 0.702714 0.575594
vn -0.219857 0.702713 0.676651
vn -0.219857 0.702713 0.676651
vn 0.000000 0.702711 0.711475
vn 0.000000 0.702711 0.711475
vn 0.219858 0.702711 0.676653
vn 0.219858 0.702711 0.676653
vn 0.418194 0.702713 0.575593
vn 0.418194 0.702713 0.575593
vn 0.575593 0.702714 0.418193
vn 0.575593 0.702714 0.418193
vn 0.676651 0.702714 0.219857
vn 0.676651 0.702714 0.219857
vn 0.711472 0.702714 -0.000000
vn 0.711472 0.702714 -0.000000
vn 0.676650 0.702714 -0.219857
vn 0.676650 0.702714 -0.219857
vn 0.575593 0.702714 -0.418193
vn 0.575593 0.702714 -0.418193
vn 0.418192 0.702714 -0.575593
vn 0.418193 0.702714 -0.575593
vn 0.219857 0.702713 -0.676651
vn 0.219857 0.702713 -0.676651
vn -0.000000 0.702713 -0.711474
vn -0.000000 0.702713 -0.711474
vn -0.219857 0.702714 -0.676651
vn -0.219858 0.702714 -0.676651
vn -0.418193 0.702714 -0.575593
vn -0.418193 0.702714 -0.575593
vn -0.575593 0.702714 -0.418193
vn -0.575593 0.702714 -0.418193
vn -0.676650 0.702715 -0.219857
vn -0.676650 0.702714 -0.219857
vn 0.122206 0.928496 -0.350657
vn 0.126755 0.928607 -0.348744
vn 0.009283 0.927096 -0.374709
vn 0.011920 0.927156 -0.374485
vn -0.119349 0.924230 -0.362705
vn -0.124085 0.924197 -0.361196
vn 0.438617 0.000000 -0.898674
vn 0.438617 0.000000 -0.898674
vn 0.438617 0.000000 -0.898674
vn 0.438617 0.000000 -0.898674
vn -0.915707 0.000000 -0.401847
vn -0.915707 0.000000 -0.401847
vn -0.915707 0.000000 -0.401847
vn -0.915707 0.000000 -0.401847
vn -0.951057 0.000000 -0.309014
vn -0.951057 0.000000 -0.309014
vn -0.951057 0.000000 -0.309014
vn -0.951057 0.000000 -0.309014
vn 0.759476 0.000000 0.650536
vn 0.759476 0.000000 0.650536
vn 0.759476 0.000000 0.650536
vn 0.759476 0.000000 0.650536
s 1
g pCylinder9
usemtl initialShadingGroup
f 41/166/1 42/2/2 43/3/3 44/165/4
f 42/4/2 41/167/1 45/168/5 46/5/6
f 44/165/4 43/6/3 47/7/7 48/169/8
f 48/169/8 47/8/7 49/9/9 50/170/10
f 50/170/10 49/10/9 51/11/11 52/171/12
f 52/171/12 51/12/11 53/13/13 54/172/14
f 54/172/14 53/14/13 55/15/15 56/173/16
f 56/173/16 55/16/15 57/17/17 58/174/18
f 58/174/18 57/18/17 59/19/19 60/175/20
f 60/175/20 59/20/19 61/21/21 62/176/22
f 62/176/22 61/22/21 63/23/23 64/177/24
f 64/177/24 63/24/23 65/25/25 66/178/26
f 66/178/26 65/26/25 67/27/27 68/179/28
f 68/179/28 67/28/27 69/29/29 70/180/30
f 70/180/30 69/30/29 71/31/31 72/181/32
f 72/181/32 71/32/31 73/33/33 74/182/34
f 74/182/34 73/34/33 75/35/35 76/183/36
f 76/183/36 75/36/35 77/37/37 78/184/38
f 78/184/38 77/38/37 79/39/39 80/185/40
f 80/185/40 79/40/39 46/41/6 45/168/5
s 2
f 82/187/41 83/43/42 84/44/43 85/186/44
f 83/45/42 82/188/41 86/189/45 87/46/46
f 87/47/46 86/189/45 88/190/47 89/48/48
f 89/49/48 88/190/47 90/191/49 91/50/50
f 91/51/50 90/191/49 92/192/51 93/52/52
f 93/53/52 92/192/51 94/193/53 95/54/54
f 95/55/54 94/193/53 96/194/55 97/56/56
f 97/57/56 96/194/55 98/195/57 99/58/58
f 99/59/58 98/195/57 100/196/59 101/60/60
f 101/61/60 100/196/59 102/197/61 103/62/62
f 103/63/62 102/197/61 104/198/63 105/64/64
f 105/65/64 104/198/63 106/199/65 107/66/66
f 107/67/66 106/199/65 108/200/67 109/68/68
f 109/69/68 108/200/67 110/201/69 111/70/70
f 111/71/70 110/201/69 112/202/71 113/72/72
f 113/73/72 112/202/71 114/203/73 115/74/74
f 115/75/74 114/203/73 116/204/75 117/76/76
f 117/77/76 116/204/75 118/205/77 119/78/78
f 119/79/78 118/205/77 120/206/79 121/80/80
f 121/81/80 120/206/79 85/186/44 84/82/43
s 3
f 1/1/81 2/83/82 22/86/83 21/84/84
f 2/83/82 3/85/85 23/88/86 22/86/83
f 3/85/85 4/87/87 24/90/88 23/88/86
f 4/87/87 5/89/89 25/92/90 24/90/88
f 5/89/89 6/91/91 26/94/92 25/92/90
f 6/91/91 7/93/93 27/96/94 26/94/92
f 7/93/93 8/95/95 28/98/96 27/96/94
f 8/95/95 9/97/97 29/100/98 28/98/96
f 9/97/97 10/99/99 30/102/100 29/100/98
f 10/99/99 11/101/101 31/104/102 30/102/100
f 11/101/101 12/103/103 32/106/104 31/104/102
f 12/103/103 13/105/105 33/108/106 32/106/104
f 13/105/105 14/107/107 34/110/108 33/108/106
f 14/107/107 15/109/109 35/112/110 34/110/108
f 15/109/109 16/111/111 36/114/112 35/112/110
f 16/111/111 17/113/113 37/116/114 36/114/112
f 17/113/113 18/115/115 38/118/116 37/116/114
f 18/115/115 19/117/117 39/120/118 38/118/116
f 19/117/117 20/119/119 40/122/120 39/120/118
f 20/119/119 1/121/81 21/42/84 40/122/120
s 4
f 43/124/121 42/123/122 81/142/123
f 47/125/124 43/124/121 81/142/123
f 49/126/125 47/125/124 81/142/123
f 51/127/126 49/126/125 81/142/123
f 53/128/127 51/127/126 81/142/123
f 55/129/128 53/128/127 81/142/123
f 57/130/129 55/129/128 81/142/123
f 59/131/130 57/130/129 81/142/123
f 61/132/131 59/131/130 81/142/123
f 63/133/132 61/132/131 81/142/123
f 65/134/133 63/133/132 81/142/123
f 67/135/134 65/134/133 81/142/123
f 69/136/135 67/135/134 81/142/123
f 71/137/136 69/136/135 81/142/123
f 73/138/137 71/137/136 81/142/123
f 75/139/138 73/138/137 81/142/123
f 77/140/139 75/139/138 81/142/123
f 79/141/140 77/140/139 81/142/123
f 46/143/141 79/141/140 81/142/123
f 42/123/122 46/143/141 81/142/123
s 5
f 83/163/142 87/144/143 122/164/144
f 87/144/143 89/145/145 122/164/144
f 89/145/145 91/146/146 122/164/144
f 91/146/146 93/147/147 122/164/144
f 93/147/147 95/148/148 122/164/144
f 95/148/148 97/149/149 122/164/144
f 97/149/149 99/150/150 122/164/144
f 99/150/150 101/151/151 122/164/144
f 101/151/151 103/152/152 122/164/144
f 103/152/152 105/153/153 122/164/144
f 105/153/153 107/154/154 122/164/144
f 107/154/154 109/155/155 123/207/156 122/164/144
f 117/159/157 119/160/158 122/164/144 127/211/159
f 119/160/158 121/161/160 122/164/144
f 121/161/160 84/162/161 122/164/144
f 84/162/161 83/163/142 122/164/144
s 7
f 2/83/162 1/1/163 41/166/164 44/165/165
f 1/121/163 20/119/166 45/168/167 41/167/164
f 3/85/168 2/83/162 44/165/165 48/169/169
f 4/87/170 3/85/168 48/169/169 50/170/171
f 5/89/172 4/87/170 50/170/171 52/171/173
f 6/91/174 5/89/172 52/171/173 54/172/175
f 7/93/176 6/91/174 54/172/175 56/173/177
f 8/95/178 7/93/176 56/173/177 58/174/179
f 9/97/180 8/95/178 58/174/179 60/175/181
f 10/99/182 9/97/180 60/175/181 62/176/183
f 11/101/184 10/99/182 62/176/183 64/177/185
f 12/103/186 11/101/184 64/177/185 66/178/187
f 13/105/188 12/103/186 66/178/187 68/179/189
f 14/107/190 13/105/188 68/179/189 70/180/191
f 15/109/192 14/107/190 70/180/191 72/181/193
f 16/111/194 15/109/192 72/181/193 74/182/195
f 17/113/196 16/111/194 74/182/195 76/183/197
f 18/115/198 17/113/196 76/183/197 78/184/199
f 19/117/200 18/115/198 78/184/199 80/185/201
f 20/119/166 19/117/200 80/185/201 45/168/167
s 8
f 40/122/202 21/42/203 82/187/204 85/186/205
f 21/84/203 22/86/206 86/189/207 82/188/204
f 22/86/206 23/88/208 88/190/209 86/189/207
f 23/88/208 24/90/210 90/191/211 88/190/209
f 24/90/210 25/92/212 92/192/213 90/191/211
f 25/92/212 26/94/214 94/193/215 92/192/213
f 26/94/214 27/96/216 96/194/217 94/193/215
f 27/96/216 28/98/218 98/195/219 96/194/217
f 28/98/218 29/100/220 100/196/221 98/195/219
f 29/100/220 30/102/222 102/197/223 100/196/221
f 30/102/222 31/104/224 104/198/225 102/197/223
f 31/104/224 32/106/226 106/199/227 104/198/225
f 32/106/226 33/108/228 108/200/229 106/199/227
f 33/108/228 34/110/230 110/201/231 108/200/229
f 34/110/230 35/112/232 112/202/233 110/201/231
f 35/112/232 36/114/234 114/203/235 112/202/233
f 36/114/234 37/116/236 116/204/237 114/203/235
f 37/116/236 38/118/238 118/205/239 116/204/237
f 38/118/238 39/120/240 120/206/241 118/205/239
f 39/120/240 40/122/202 85/186/205 120/206/241
s 5
f 109/155/155 111/156/242 124/208/243 123/207/156
f 111/156/242 113/157/244 125/209/245 124/208/243
f 113/157/244 115/158/246 126/210/247 125/209/245
f 115/158/246 117/159/157 127/211/159 126/210/247
s off
f 123/207/248 124/208/249 130/214/250 129/213/251
f 124/208/252 128/212/253 131/215/254 130/214/255
f 128/212/256 122/164/257 132/216/258 131/215/259
f 122/164/260 123/207/261 129/213/262 132/216/263
